<svg xmlns="http://www.w3.org/2000/svg" style="display: none;">

  <!-- Іконка антени (для Увага до деталей) -->
  <symbol id="icon-antenna" viewBox="0 0 70 70">
    <path d="M67.316 48.3385L48.847 29.7337L50.897 19.6373C51.426 19.8438 51.988 19.9517 52.556 19.9558H52.57C55.178 19.9866 57.317 17.8974 57.348 15.2893C57.379 12.6812 55.289 10.542 52.681 10.5111C50.073 10.4803 47.934 12.5695 47.903 15.1776C47.897 15.7357 47.989 16.2905 48.176 16.8163L37.326 18.1405L19.628 0.35C19.41 0.128515 19.114 0.00251263 18.804 0C18.498 0.00156673 18.204 0.123466 17.987 0.339465L14.679 3.6295C14.223 4.08506 14.223 4.82361 14.679 5.27917L16.459 7.08524C9.56227 19.7681 11.8019 35.4741 21.9704 45.7228C22.0642 45.8121 22.172 45.8843 22.2897 45.9363C22.2164 46.3311 22.178 46.7317 22.1758 47.1333V60.6667H8.17578C4.95638 60.6705 2.34644 63.28 2.34229 66.5V68.8333C2.34229 69.4776 2.86474 70 3.50899 70H57.1758C57.82 70 58.3425 69.4776 58.3425 68.8333V66.5C58.3383 63.28 55.7288 60.6705 52.5089 60.6667H38.5089V54.6688C40.7016 55.1288 42.9368 55.3633 45.1777 55.3688C50.5549 55.363 55.8461 54.0225 60.5779 51.4675L62.3667 53.2677C62.5842 53.4892 62.8807 53.6152 63.1908 53.6177C63.4971 53.6161 63.7904 53.4941 64.0079 53.2782L67.3159 49.9882C67.7715 49.5326 67.7715 48.7941 67.3159 48.3385ZM50.9248 13.6348C51.8375 12.726 53.3158 12.7301 54.2244 13.6437C55.1331 14.5574 55.1292 16.0348 54.2153 16.9435C53.7783 17.3785 53.186 17.6226 52.569 17.6225H52.5622C51.2743 17.6158 50.2354 16.5658 50.2414 15.2771C50.2443 14.6602 50.4923 14.0699 50.9294 13.6348H50.9248ZM48.1777 21.301L46.8689 27.7445L44.2979 25.158L48.1777 21.301ZM46.8532 19.3282L42.6532 23.5037L39.4042 20.237L46.8532 19.3282ZM52.5089 63C54.4416 63 56.0089 64.567 56.0089 66.5V67.6667H4.67562V66.5C4.67562 64.567 6.24298 63 8.17578 63H52.5089ZM36.1758 58.3333V60.6667H24.5089V58.3333H36.1758ZM24.5089 56V47.1333C24.5089 44.303 27.1263 42 30.3425 42C33.5588 42 36.1758 44.303 36.1758 47.1333V56H24.5089ZM38.5089 52.29V47.1333C38.5089 43.0162 34.8456 39.6667 30.3425 39.6667C27.4307 39.622 24.7078 41.1041 23.165 43.5738C14.2889 34.2249 12.2902 20.2875 18.1808 8.82074L58.8717 49.7455C52.5889 52.9419 45.3858 53.8418 38.5089 52.29ZM63.2041 50.7943L61.5596 49.1412L18.7918 6.11571L17.1408 4.4613L18.7918 2.81631L36.1503 20.272C36.1576 20.272 36.1633 20.2872 36.1706 20.293L64.8592 49.1493L63.2041 50.7943Z" fill="#212121"/>
    <path d="M30.353 44.3333H30.342C28.409 44.3304 26.84 45.895 26.8373 47.8281C26.8342 49.7611 28.399 51.3304 30.332 51.3333H30.342C32.275 51.3362 33.845 49.7716 33.8478 47.8386C33.8505 45.9055 32.2859 44.3362 30.353 44.3333ZM31.1695 48.6605C30.9501 48.8789 30.6523 49.0012 30.342 49C29.6981 48.9966 29.1779 48.4716 29.1815 47.8273C29.1828 47.5189 29.3066 47.2237 29.5258 47.0062C29.7432 46.7902 30.0364 46.6683 30.342 46.6667C30.9866 46.67 31.5064 47.195 31.503 47.8393C31.5014 48.1477 31.3777 48.4429 31.1588 48.6605H31.1695Z" fill="#2196F3"/>
  </symbol>

  <!-- Іконка годинника (для Пунктуальність) -->
  <symbol id="icon-clock" viewBox="0 0 70 70">
    <path d="M68.461 33.4715C68.458 14.9819 53.466 -0.00372791 34.975 1.52588e-05C16.486 0.00374176 1.5 14.9963 1.50371 33.4859C1.50709 48.0502 10.925 60.9413 24.8002 65.3713C24.9318 65.413 25.0697 65.4343 25.2084 65.4338C25.4721 65.4333 25.7296 65.3628 25.9574 65.2287C26.2527 65.0541 26.4731 64.7764 26.577 64.449L35.0324 37.6521C37.3426 37.6404 39.2071 35.7568 39.1939 33.4459C39.1833 31.1345 37.2997 29.2706 34.9883 29.2824C34.3674 29.285 33.7531 29.4282 33.1936 29.7011L22.0251 18.5302C21.4708 17.9951 20.5876 18.0106 20.0525 18.5644C19.5298 19.1054 19.5298 19.962 20.0525 20.503L31.2158 31.6792C30.3597 33.4277 30.8489 35.5383 32.3898 36.7303L24.3339 62.2647C8.41438 56.4002 0.261934 38.7405 6.1264 22.8203C11.9908 6.89998 29.6505 -1.25176 45.5708 4.61269C61.491 10.4771 69.6428 28.1374 63.7783 44.0571C60.9128 51.8351 55.0262 58.1252 47.455 61.4989L46.5842 57.3989C46.4254 56.6454 45.684 56.1636 44.9305 56.3233C44.6932 56.3741 44.4732 56.4857 44.2907 56.6475L35.8979 64.1409C35.3216 64.653 35.271 65.5347 35.7831 66.1105C35.9497 66.2974 36.1635 66.4362 36.4026 66.5126L47.1189 69.9327C47.8517 70.1682 48.6383 69.765 48.8738 69.0312C48.948 68.7994 48.9597 68.5527 48.9096 68.3145L48.0549 64.2915C60.4452 59.0678 68.4898 46.918 68.461 33.4715ZM34.9834 32.0766C35.7535 32.0766 36.3779 32.7014 36.3779 33.4715C36.3779 34.2422 35.7535 34.8665 34.9834 34.8665C34.2127 34.8665 33.5883 34.2422 33.5883 33.4715C33.5883 32.7014 34.2127 32.0766 34.9834 32.0766ZM39.577 64.5916L44.3551 60.3298L45.6743 66.543L39.577 64.5916Z" fill="#212121"/>
    <path d="M33.5883 6.96735V9.75723C33.5883 10.5279 34.2127 11.1522 34.9834 11.1522C35.7535 11.1522 36.3779 10.5279 36.3779 9.75723V6.96735C36.3779 6.19724 35.7535 5.57227 34.9834 5.57227C34.2127 5.57227 33.5883 6.19724 33.5883 6.96735Z" fill="#2196F3"/>
    <path d="M8.47852 32.0766C7.70785 32.0766 7.08337 32.7014 7.08337 33.4715C7.08337 34.2422 7.70785 34.8665 8.47852 34.8665H11.2684C12.0391 34.8665 12.6635 34.2422 12.6635 33.4715C12.6635 32.7014 12.0391 32.0766 11.2684 32.0766H8.47852Z" fill="#2196F3"/>
    <path d="M61.4871 34.8665C62.2578 34.8665 62.8823 34.2422 62.8823 33.4715C62.8823 32.7014 62.2578 32.0766 61.4871 32.0766H58.6973C57.9266 32.0766 57.3022 32.7014 57.3022 33.4715C57.3022 34.2422 57.9266 34.8665 58.6973 34.8665H61.4871Z" fill="#2196F3"/>
  </symbol>

  <!-- Іконка діаграми (для Планування) -->
  <symbol id="icon-diagram" viewBox="0 0 70 70">
    <path d="M32.65 32.7351H34.982V43.2296H32.65V32.7351Z" fill="#2196F3"/>
    <path d="M41.978 37.3993H44.31V43.2296H41.978V37.3993Z" fill="#2196F3"/>
    <path d="M23.321 40.8975H25.653V43.2296H23.321V40.8975Z" fill="#2196F3"/>
    <path d="M16.325 39.7314H18.657V43.2295H16.325V39.7314Z" fill="#2196F3"/>
    <path d="M3.49805 61.8865H59.469C61.4008 61.8865 62.9672 60.3202 62.9672 58.3883V53.7241C62.9672 51.7923 61.4008 50.2259 59.469 50.2259H58.3025V21.1468L64.9263 14.8725C66.4629 15.6303 68.3244 15.1702 69.3303 13.7816C70.3365 12.3934 70.1956 10.4821 68.9969 9.25677C67.7982 8.03159 65.8898 7.84883 64.4799 8.82408C63.0704 9.80002 62.5692 11.6499 63.2932 13.2036L58.3025 17.9345V15.2442C58.3025 13.3124 56.7362 11.7461 54.8043 11.7461H8.16211C6.23027 11.7461 4.66392 13.3124 4.66392 15.2442V50.2259H3.49805C1.56621 50.2259 0 51.7923 0 53.7241V58.3883C0 60.3202 1.56621 61.8865 3.49805 61.8865ZM66.465 10.58C67.1087 10.58 67.6311 11.1021 67.6311 11.7461C67.6311 12.39 67.1087 12.9121 66.465 12.9121C65.8213 12.9121 65.2989 12.39 65.2989 11.7461C65.2989 11.1021 65.8213 10.58 66.465 10.58ZM6.99609 15.2442C6.99609 14.6003 7.51837 14.0782 8.16211 14.0782H54.8043C55.448 14.0782 55.9703 14.6003 55.9703 15.2442V20.1413L53.6388 22.3573V17.5764C53.6388 16.9324 53.1165 16.4103 52.4728 16.4103H10.4946C9.85088 16.4103 9.3286 16.9324 9.3286 17.5764V46.7278C9.3286 47.3717 9.85088 47.8938 10.4946 47.8938H52.4728C53.1165 47.8938 53.6388 47.3717 53.6388 46.7278V25.5651L55.9703 23.3554V50.2259H6.99609V15.2442ZM17.4912 30.403C15.9126 30.3984 14.5284 31.4495 14.1084 32.9702C13.6888 34.491 14.3378 36.104 15.6948 36.9091C17.0514 37.7142 18.779 37.5121 19.9129 36.4149L23.9658 38.4487C24.4368 38.6844 25.0083 38.5739 25.3581 38.1805L33.9735 28.4871L42.4444 34.8338C42.8987 35.1742 43.5327 35.1378 43.9447 34.7478L51.3064 27.7748V45.5617H11.6608V18.7424H51.3064V24.5619L43.0558 32.3747L34.5147 25.9716C34.0296 25.6084 33.3476 25.6767 32.9436 26.1293L24.2102 35.9571L20.9454 34.3242C20.9689 34.1841 20.9826 34.0429 20.9893 33.9011C20.9893 31.9693 19.423 30.403 17.4912 30.403ZM18.657 33.9011C18.657 34.5451 18.1347 35.0672 17.4912 35.0672C16.8474 35.0672 16.3252 34.5451 16.3252 33.9011C16.3252 33.2572 16.8474 32.7351 17.4912 32.7351C18.1347 32.7351 18.657 33.2572 18.657 33.9011ZM25.6528 52.558H37.3136V53.7241C37.3136 54.3681 36.7913 54.8902 36.1476 54.8902H26.8188C26.1751 54.8902 25.6528 54.3681 25.6528 53.7241V52.558ZM2.33217 53.7241C2.33217 53.0802 2.85445 52.558 3.49805 52.558H23.3207V53.7241C23.3207 55.656 24.8869 57.2223 26.8188 57.2223H36.1476C38.0794 57.2223 39.6457 55.656 39.6457 53.7241V52.558H59.469C60.1127 52.558 60.635 53.0802 60.635 53.7241V58.3883C60.635 59.0323 60.1127 59.5544 59.469 59.5544H3.49805C2.85445 59.5544 2.33217 59.0323 2.33217 58.3883V53.7241Z" fill="#212121"/>
  </symbol>

  <!-- Іконка космонавта (для Сучасні технології) -->
  <symbol id="icon-astronaut" viewBox="0 0 70 70">
    <path d="M69.943 9.89642C69.8058 9.47521 69.4423 9.16727 69.0024 9.10297L61.3947 8.14709L58.1025 1.20414C57.5606 -0.401379 55.2531 -0.401379 54.7112 1.20414L51.4189 8.14709L43.8109 9.10311C43.3715 9.16727 43.0082 9.47435 42.869 9.89656C42.7316 10.3189 42.8448 10.7832 43.1638 11.0924L48.7677 16.4036L47.3097 23.9516C47.2357 24.3891 47.4147 24.8312 47.7733 25.0926C48.136 25.3563 48.6095 25.3888 49.0025 25.1811L55.9058 22.0154L62.8091 25.1811C62.9798 25.2709 63.167 25.3152 63.3533 25.3152C63.5944 25.3152 63.8364 25.2406 64.039 25.0925C64.3982 24.8311 64.5781 24.3889 64.5029 23.9514L63.0447 16.4035L68.6479 11.0923C68.9651 10.7819 69.0796 10.3187 68.9434 9.89642ZM61.7114 14.9613C61.436 15.2285 61.3098 15.6158 61.3756 15.9938L62.0487 19.9309L58.5175 18.238C58.3459 18.1481 58.1596 18.1038 57.9732 18.1038C57.7869 18.1038 57.6015 18.1481 57.4289 18.238L53.8977 19.9309L54.5708 15.9938C54.6366 15.6158 54.5104 15.2297 54.2349 14.9613L51.3194 12.0985L55.2894 11.4906C55.6693 11.4358 55.9968 11.1966 56.1675 10.8524L57.9058 7.18587L59.644 10.8524C59.8147 11.1965 60.142 11.4358 60.5221 11.4906L64.4921 12.0985L61.7114 14.9613Z" fill="#2196F3"/>
    <path d="M57.167 44.8923H54.834V47.2257H57.167V44.8923Z" fill="#2196F3"/>
    <path d="M57.167 49.5591H54.834V51.8925H57.167V49.5591Z" fill="#2196F3"/>
    <path d="M59.5 47.2257H57.167V49.5591H59.5V47.2257Z" fill="#2196F3"/>
    <path d="M54.834 47.2257H52.5V49.5591H54.834V47.2257Z" fill="#2196F3"/>
    <path d="M49 57.7259H46.667V60.0593H49V57.7259Z" fill="#2196F3"/>
    <path d="M49 62.3926H46.667V64.726H49V62.3926Z" fill="#2196F3"/>
    <path d="M51.334 60.0593H49V62.3927H51.334V60.0593Z" fill="#2196F3"/>
    <path d="M46.667 60.0593H44.333V62.3927H46.667V60.0593Z" fill="#2196F3"/>
    <path d="M35 53.0592H32.667V55.3926H35V53.0592Z" fill="#2196F3"/>
    <path d="M35 57.7259H32.667V60.0593H35V57.7259Z" fill="#2196F3"/>
    <path d="M37.333 55.3925H35V57.7259H37.333V55.3925Z" fill="#2196F3"/>
    <path d="M32.667 55.3925H30.333V57.7259H32.667V55.3925Z" fill="#2196F3"/>
    <path d="M12.833 13.3918H10.5V15.7252H12.833V13.3918Z" fill="#2196F3"/>
    <path d="M12.833 18.0587H10.5V20.3921H12.833V18.0587Z" fill="#2196F3"/>
    <path d="M15.166 15.7253H12.833V18.0587H15.166V15.7253Z" fill="#2196F3"/>
    <path d="M10.5 15.7253H8.166V18.0587H10.5V15.7253Z" fill="#2196F3"/>
    <path d="M54.064 30.9738C53.435 30.1256 52.512 29.5797 51.464 29.4326C50.412 29.2833 49.373 29.5597 48.533 30.2026L45.795 32.3014L45.794 32.3026L41.643 35.4025L38.672 34.2195C43.969 31.843 47.671 26.545 47.671 20.3942C47.671 12.0314 40.84 5.22736 32.444 5.22736C24.047 5.22736 17.216 12.0314 17.216 20.3942C17.216 23.4253 18.123 26.244 19.666 28.6158L13.62 28.5633C13.617 28.5633 13.613 28.5633 13.61 28.5633C13.591 28.5633 13.576 28.5726 13.559 28.5738C13.443 28.5785 13.33 28.6019 13.219 28.6415C13.191 28.652 13.162 28.6579 13.135 28.6706C13.121 28.6765 13.107 28.6776 13.093 28.6846L6.021 32.1764C6.02 32.1764 6.018 32.1764 6.018 32.1775L1.877 34.1693C1.831 34.1891 1.784 34.2159 1.739 34.2463C0.088 35.3452 -0.4743 37.5036 0.43 39.2676C0.912 40.2056 1.732 40.8964 2.74 41.2125C3.129 41.3337 3.525 41.3933 3.92 41.3933C4.553 41.3933 5.181 41.2382 5.756 40.9314L8.792 39.3167L13.744 36.7593L16.712 36.7418L4.808 48.5884C4.807 48.5896 4.806 48.5896 4.805 48.5907L1.876 51.5074C1.185 52.1958 0.804 53.1092 0.804 54.0835C0.804 55.0565 1.185 55.9723 1.876 56.6619C2.587 57.3689 3.522 57.7236 4.456 57.7236C5.392 57.7236 6.325 57.3689 7.038 56.6619L9.913 53.7988L13.721 50.9556L15.691 52.9179L11.838 56.7552C11.836 56.7564 11.835 56.7564 11.834 56.7575L8.906 59.6741C8.214 60.3625 7.833 61.276 7.833 62.2502C7.833 63.2233 8.214 64.139 8.906 64.8287C9.616 65.5356 10.552 65.8903 11.486 65.8903C12.421 65.8903 13.357 65.5356 14.068 64.8287L16.998 61.912L21.684 57.2453C21.685 57.2441 21.685 57.243 21.687 57.2417L23.895 55.0542L23.887 55.046C23.901 55.0321 23.921 55.0273 23.935 55.0122L35.235 42.6349L42.828 43.7153C42.883 43.7235 42.938 43.7269 42.993 43.7269C43.134 43.7269 43.27 43.6931 43.402 43.6429C43.441 43.629 43.474 43.6103 43.511 43.5917C43.553 43.5706 43.597 43.559 43.637 43.5322L50.666 38.8655C50.692 38.848 50.706 38.82 50.73 38.8014C50.758 38.7792 50.793 38.7699 50.819 38.7453L53.6 36.1401C55.047 34.7841 55.247 32.5628 54.064 30.9738ZM4.66 38.8722C4.281 39.0752 3.851 39.116 3.439 38.9854C3.03 38.8583 2.699 38.5793 2.505 38.2025C2.153 37.5165 2.357 36.6811 2.974 36.2297L5.848 34.8471L6.54 36.869L6.83 37.7183L4.66 38.8722ZM12.31 34.8741L8.923 36.6241L8.365 34.9907L7.963 33.817L12.397 31.6282L12.31 34.8741ZM45.34 20.3919C45.34 22.4009 44.861 24.2957 44.03 25.9908L34.883 21.8362C34.788 20.5821 34.137 19.4842 33.159 18.8005L36.361 8.16847C41.563 9.82297 45.34 14.6752 45.34 20.3919ZM19.552 20.3919C19.552 13.3159 25.336 7.55828 32.446 7.55828C32.999 7.55828 33.54 7.60498 34.076 7.67258L30.943 18.0714C30.901 18.0701 30.862 18.0585 30.819 18.0585C28.56 18.0585 26.722 19.8902 26.722 22.1419C26.722 24.3936 28.56 26.2254 30.819 26.2254C32.338 26.2254 33.65 25.3866 34.358 24.1591L42.807 27.9976C40.456 31.1616 36.694 33.2255 32.446 33.2255C25.336 33.2255 19.552 27.4679 19.552 20.3919ZM32.581 22.1419C32.581 23.1068 31.79 23.892 30.819 23.892C29.847 23.892 29.056 23.1068 29.056 22.1419C29.056 21.1771 29.847 20.3919 30.819 20.3919C31.79 20.3919 32.581 21.1771 32.581 22.1419ZM5.392 55.0075C4.875 55.5196 4.038 55.5185 3.523 55.0087C3.274 54.7601 3.138 54.4324 3.138 54.0835C3.138 53.7358 3.274 53.408 3.523 53.1619L5.627 51.0652L7.489 52.9192L5.392 55.0075ZM12.422 63.1743C11.905 63.6865 11.068 63.6877 10.552 63.1756C10.303 62.927 10.167 62.5993 10.167 62.2504C10.167 61.9027 10.303 61.5748 10.552 61.3287L12.658 59.231L13.539 60.1073L14.521 61.085L12.422 63.1743ZM20.038 55.5862C20.037 55.5873 20.036 55.5873 20.035 55.5885L16.174 59.4386L15.293 58.5623L14.311 57.5846L18.168 53.7451L18.172 53.7417C18.259 53.6542 18.314 53.5492 18.368 53.4454C18.383 53.4151 18.412 53.3894 18.425 53.3579C18.461 53.2681 18.467 53.1713 18.481 53.0767C18.488 53.0229 18.511 52.9729 18.511 52.9179C18.511 52.8397 18.483 52.764 18.467 52.6869C18.453 52.6169 18.453 52.5457 18.426 52.4781C18.382 52.3685 18.306 52.2717 18.227 52.1771C18.204 52.1514 18.196 52.1187 18.172 52.0942L14.653 48.5895C14.616 48.5522 14.568 48.537 14.526 48.5056C14.464 48.4577 14.405 48.4134 14.336 48.3795C14.269 48.3468 14.201 48.327 14.131 48.3083C14.057 48.2872 13.984 48.2709 13.906 48.2651C13.835 48.2604 13.769 48.2674 13.698 48.2756C13.619 48.2849 13.546 48.2954 13.47 48.3199C13.396 48.3433 13.331 48.3794 13.264 48.4179C13.22 48.4424 13.171 48.4506 13.131 48.4809L9.251 51.3767L7.281 49.4143L12.529 44.1946L22.067 53.576L20.038 55.5862ZM34.954 40.2372C34.921 40.2326 34.889 40.2454 34.855 40.2431C34.77 40.2385 34.689 40.2443 34.603 40.2583C34.537 40.2699 34.474 40.2828 34.411 40.3049C34.336 40.3306 34.269 40.3656 34.2 40.4076C34.134 40.4472 34.075 40.4892 34.018 40.5417C33.99 40.5662 33.956 40.5779 33.93 40.6058L23.653 51.8621L14.185 42.5507L20.382 36.3859C20.839 35.9309 20.841 35.1924 20.386 34.735C20.156 34.5052 19.854 34.392 19.552 34.3932V34.3921L14.698 34.4213L14.759 30.9049L21.549 30.9633C24.317 33.7937 28.176 35.5589 32.446 35.5589C33.403 35.5589 34.336 35.4598 35.245 35.2905C35.332 35.3605 35.419 35.4318 35.528 35.4761L40.8 37.5761L41.133 39.2351L41.523 41.1717L34.954 40.2372ZM43.794 40.6269L43.11 37.219L46.274 34.8564L47.102 35.9554L48.345 37.6051L43.794 40.6269ZM52.005 34.4341L50.173 36.1515L48.136 33.4471L49.954 32.053C50.294 31.7917 50.722 31.6855 51.142 31.7403C51.564 31.7998 51.938 32.0203 52.192 32.3621C52.666 33.0003 52.585 33.8905 52.005 34.4341Z" fill="#212121"/>
    <path d="M29.755 40.5651L25.067 35.8984C24.613 35.4446 23.876 35.4446 23.421 35.8984L18.734 40.5651C18.515 40.7856 18.391 41.0819 18.391 41.3922C18.391 41.7026 18.513 42.0001 18.734 42.2194L23.421 46.8861C23.648 47.1124 23.947 47.2256 24.244 47.2256C24.542 47.2256 24.84 47.1124 25.067 46.8861L29.755 42.2194C29.974 42.0001 30.099 41.7026 30.099 41.3922C30.099 41.0819 29.975 40.7844 29.755 40.5651ZM24.244 44.4128L21.211 41.3922L24.244 38.3717L27.279 41.3922L24.244 44.4128Z" fill="#212121"/>
    <path d="M37.547 11.0923L36.983 13.358C37.138 13.3966 40.784 14.3463 40.784 18.0586H43.118C43.118 13.6461 39.474 11.5718 37.547 11.0923Z" fill="#212121"/>
    <path d="M43.118 20.3919H40.784V22.7253H43.118V20.3919Z" fill="#2196F3"/>
  </symbol>

  <!-- Іконки соцмереж -->
  <symbol id="icon-instagram" viewBox="0 0 32 32">
    <path d="M16 2.881c4.275 0 4.781.019 6.462.094 1.563.069 2.406.331 2.969.55a4.952 4.952 0 011.837 1.194 5.015 5.015 0 011.2 1.838c.219.563.481 1.412.55 2.969.075 1.688.094 2.194.094 6.463s-.019 4.781-.094 6.463c-.069 1.563-.331 2.406-.55 2.969a4.94 4.94 0 01-1.194 1.837 5.02 5.02 0 01-1.838 1.2c-.563.219-1.413.481-2.969.55-1.688.075-2.194.094-6.463.094s-4.781-.019-6.463-.094c-1.563-.069-2.406-.331-2.969-.55a4.952 4.952 0 01-1.838-1.194 5.02 5.02 0 01-1.2-1.837c-.219-.563-.481-1.413-.55-2.969-.075-1.688-.094-2.194-.094-6.463s.019-4.781.094-6.463c.069-1.563.331-2.406.55-2.969a4.964 4.964 0 011.194-1.838 5.015 5.015 0 011.838-1.2c.563-.219 1.413-.481 2.969-.55 1.681-.075 2.188-.094 6.463-.094zM16 0c-4.344 0-4.887.019-6.594.094-1.7.075-2.869.35-3.881.744-1.056.412-1.95.956-2.837 1.85a7.833 7.833 0 00-1.85 2.831C.444 6.538.169 7.7.094 9.4.019 11.113 0 11.656 0 16s.019 4.887.094 6.594c.075 1.7.35 2.869.744 3.881.413 1.056.956 1.95 1.85 2.837a7.82 7.82 0 002.831 1.844c1.019.394 2.181.669 3.881.744 1.706.075 2.25.094 6.594.094s4.888-.019 6.594-.094c1.7-.075 2.869-.35 3.881-.744 1.05-.406 1.944-.956 2.831-1.844s1.438-1.781 1.844-2.831c.394-1.019.669-2.181.744-3.881.075-1.706.094-2.25.094-6.594s-.019-4.887-.094-6.594c-.075-1.7-.35-2.869-.744-3.881a7.506 7.506 0 00-1.831-2.844A7.82 7.82 0 0026.482.843C25.463.449 24.301.174 22.601.099c-1.712-.081-2.256-.1-6.6-.1z"/>
    <path d="M16 7.781c-4.537 0-8.219 3.681-8.219 8.219s3.681 8.219 8.219 8.219 8.219-3.681 8.219-8.219A8.221 8.221 0 0016 7.781zm0 13.55a5.331 5.331 0 110-10.663 5.331 5.331 0 010 10.663zM26.462 7.456a1.919 1.919 0 11-3.838 0 1.919 1.919 0 013.838 0z"/>
  </symbol>

  <symbol id="icon-twitter" viewBox="0 0 20 20">
    <path d="M20 3.799a8.549 8.549 0 01-2.363.647 4.077 4.077 0 001.804-2.266 8.194 8.194 0 01-2.6.993A4.099 4.099 0 009.75 6.9c0 .325.027.638.095.935-3.409-.166-6.425-1.8-8.451-4.288A4.128 4.128 0 00.83 5.695a4.098 4.098 0 001.82 3.408 4.05 4.05 0 01-1.853-.505v.047a4.107 4.107 0 003.292 4.028 4.095 4.095 0 01-1.844.068 4.11 4.11 0 003.834 2.85A8.231 8.231 0 010 17.076a11.543 11.543 0 006.29 1.84c7.545 0 11.67-6.25 11.67-11.668 0-.18-.006-.356-.015-.53A8.18 8.18 0 0020 3.799z"/>
  </symbol>

  <symbol id="icon-facebook" viewBox="0 0 32 32">
    <path d="M21.329 5.313h2.921V.225C23.746.156 22.013 0 19.994 0c-4.212 0-7.097 2.649-7.097 7.519V12H8.249v5.688h4.648V32h5.699V17.689h4.46l.708-5.688h-5.169V8.082c.001-1.644.444-2.769 2.735-2.769z"/>
  </symbol>

  <symbol id="icon-linkedin" viewBox="0 0 32 32">
    <path d="M31.992 32v-.001H32V20.263c0-5.741-1.236-10.164-7.948-10.164-3.227 0-5.392 1.771-6.276 3.449h-.093v-2.913h-6.364v21.364h6.627V21.42c0-2.785.528-5.479 3.977-5.479 3.399 0 3.449 3.179 3.449 5.657v10.401h6.62zM.528 10.636h6.635V32H.528V10.636zM3.843 0C1.722 0 0 1.721 0 3.843s1.721 3.879 3.843 3.879c2.121 0 3.843-1.757 3.843-3.879A3.846 3.846 0 003.843 0z"/>
  </symbol>

  <!-- Іконка email (для header) -->
  <symbol id="icon-email" viewBox="0 0 16 12">
    <path d="M14.5 0H1.50001C0.672854 0 0 0.672853 0 1.50001V10.5C0 11.3271 0.672854 12 1.50001 12H14.5C15.3271 12 16 11.3271 16 10.5V1.50001C16 0.672853 15.3271 0 14.5 0ZM14.5 0.999994C14.5679 0.999994 14.6325 1.01409 14.6916 1.0387L8 6.83838L1.30833 1.0387C1.36742 1.01412 1.43204 0.999994 1.49998 0.999994H14.5ZM14.5 11H1.50001C1.22414 11 0.999996 10.7759 0.999996 10.5V2.09521L7.67236 7.87792C7.76661 7.95944 7.8833 7.99999 8 7.99999C8.1167 7.99999 8.23339 7.95948 8.32764 7.87792L15 2.09521V10.5C15 10.7759 14.7759 11 14.5 11Z"/>
  </symbol>

  <!-- Іконка phone (для header) -->
  <symbol id="icon-phone" viewBox="0 0 10 16">
    <path d="M8.5 0H1.5C0.672848 0 0 0.672848 0 1.5V14.5C0 15.3272 0.672848 16 1.5 16H8.5C9.32715 16 10 15.3272 10 14.5V1.5C10 0.672848 9.32715 0 8.5 0ZM1.5 1H8.5C8.77588 1 9 1.22412 9 1.5V12H1V1.5C1 1.22412 1.22412 1 1.5 1ZM8.5 15H1.5C1.22412 15 1 14.7759 1 14.5V13H9V14.5C9 14.7759 8.77588 15 8.5 15Z"/>
    <path d="M2.35355 13.7389C2.54882 13.9213 2.54882 14.2169 2.35355 14.3992C2.15828 14.5816 1.84172 14.5816 1.64645 14.3992C1.45118 14.2169 1.45118 13.9213 1.64645 13.7389C1.84172 13.5566 2.15828 13.5566 2.35355 13.7389Z"/>
  </symbol>

  <!-- Іконка відправки (для footer subscribe) -->
  <symbol id="icon-send" viewBox="0 0 24 24">
    <path d="M24 0L0 13.5L7.67 16.3407L19.5 5.25002L10.502 17.3896L10.509 17.3923L10.5 17.3896V24.0001L14.801 18.982L20.25 21.0001L24 0Z"/>
  </symbol>

</svg>